# xmcd
# 
# Track frame offsets:
#     187
#     20302
#     41130
#     66342
#     87640
#     103770
#     124795
#     144152
#     165105
#     185712
# 
# Disc length: 2749
# 
# Revision: 1
# Processed by: cddbd v1.5.2PL0 Copyright (c) Steve Scherf et al.
# Submitted via: fre:ac v1.1beta2
# 
DISCID=850abb0a
DTITLE=浅香唯 - OPEN YOUR EYES
DYEAR=1990
DGENRE=JPop
TTITLE0=OPEN　YOUR　EYES
TTITLE1=僕らの独立記念日
TTITLE2=Color
TTITLE3=Somebody Loves Me
TTITLE4=失った心
TTITLE5=Don't Tell Her About Me
TTITLE6=Close to My Heart
TTITLE7=秘密にできない
TTITLE8=ボーイフレンドをつくろう
TTITLE9=Our Birthday
EXTD=Release: 1990-07-04
EXTT0=
EXTT1=
EXTT2=
EXTT3=
EXTT4=
EXTT5=
EXTT6=
EXTT7=
EXTT8=
EXTT9=
PLAYORDER=
